P3
35 76
255
# original file name = imgs/earring.ppm
29 15 15
36 18 24
48 29 24
42 26 31
130 121 150
165 157 203
172 164 211
160 151 198
143 133 189
169 167 216
174 172 217
170 169 212
151 153 201
157 158 210
142 143 197
134 134 193
112 110 176
121 127 198
121 123 194
137 136 208
137 136 204
152 152 215
136 136 196
147 147 208
129 129 194
139 138 205
103 102 169
89 89 155
111 111 176
129 130 190
127 127 188
115 119 185
86 78 114
74 62 86
91 80 100

27 12 12
37 16 22
49 29 23
23 9 16
159 150 193
176 165 206
161 151 190
157 146 185
186 176 206
144 141 196
160 157 210
149 147 192
154 154 210
133 133 199
129 129 196
116 116 186
104 103 163
110 114 185
120 122 193
111 110 184
122 121 192
151 151 215
134 135 195
155 156 216
122 121 186
109 108 172
88 90 137
96 98 154
105 103 174
129 129 194
102 105 155
116 120 189
79 72 106
87 74 98
71 61 74

34 18 18
41 25 23
40 20 12
73 53 64
168 152 198
145 136 174
135 126 156
149 137 161
213 190 194
157 155 199
158 158 214
160 159 216
156 153 217
144 141 198
116 116 154
120 121 179
109 110 165
104 104 166
117 118 189
98 102 164
110 114 185
123 127 198
139 145 200
133 138 182
147 145 209
102 97 159
98 88 148
96 100 175
104 93 161
123 125 189
135 138 205
109 114 179
86 77 108
75 61 74
77 59 77

29 13 13
40 24 21
46 25 20
62 42 52
154 138 176
137 124 165
151 133 162
243 216 215
223 188 179
165 157 203
150 146 194
139 136 198
150 146 214
143 138 202
120 117 169
121 119 177
114 115 173
107 107 170
103 104 158
120 132 203
99 104 175
121 125 196
134 139 200
151 154 206
145 144 208
104 101 152
71 62 99
95 93 147
91 78 142
96 89 144
136 133 191
92 95 138
77 64 92
62 48 68
71 55 72

34 18 18
39 23 18
49 28 24
86 67 76
107 94 119
139 113 128
191 160 166
234 197 193
250 209 196
212 188 146
163 150 203
152 146 196
144 138 196
149 145 207
136 132 191
121 116 176
122 122 186
105 107 162
95 94 150
109 105 166
112 116 187
93 97 168
108 112 184
144 146 209
152 151 216
101 99 138
52 43 63
66 58 89
66 50 82
87 74 107
72 64 100
89 82 124
78 67 106
71 59 87
65 53 67

38 22 21
45 30 23
44 23 20
59 39 48
83 69 83
191 155 134
246 207 188
225 187 175
237 201 193
198 167 128
209 182 194
148 131 178
172 164 214
143 140 188
140 136 195
125 124 177
132 133 190
125 127 188
110 106 169
106 95 147
96 98 167
114 117 187
96 99 169
122 122 192
152 151 218
105 104 140
52 43 61
58 46 64
72 55 68
62 49 66
65 55 72
76 70 93
86 79 122
78 66 102
70 59 74

43 29 28
58 44 43
44 33 18
53 31 36
167 139 116
243 206 180
242 199 195
235 194 188
250 216 201
234 196 176
229 192 155
193 164 127
167 145 140
164 147 190
141 136 193
123 120 172
151 147 211
143 140 206
127 129 185
86 83 121
85 80 101
90 83 138
98 95 156
99 100 167
118 118 195
110 111 163
79 72 97
61 49 67
80 68 97
70 62 91
67 64 82
81 76 101
82 79 113
72 57 96
87 66 106

38 24 22
50 35 33
56 41 33
105 78 73
218 183 159
237 196 176
243 204 195
248 207 202
252 217 207
238 204 194
243 200 193
239 198 161
222 184 133
180 153 142
123 114 172
109 110 171
145 141 205
152 149 213
132 135 190
90 87 127
86 81 101
92 86 115
90 88 140
89 88 151
100 99 166
112 109 169
90 83 122
71 63 98
77 68 91
88 78 109
85 81 110
89 83 110
83 74 101
110 96 135
90 73 113

30 17 13
46 30 27
68 47 51
179 146 122
236 186 163
245 202 191
238 194 193
252 216 209
235 196 190
226 186 175
236 194 177
231 191 165
227 181 150
217 174 128
165 140 121
122 118 166
147 145 207
144 142 200
151 153 207
90 82 112
54 50 68
76 71 90
91 85 113
92 90 137
106 100 173
95 92 147
84 81 124
80 73 106
63 58 77
82 71 96
55 50 84
104 98 128
83 73 98
88 76 112
88 76 114

44 30 25
44 27 23
91 67 73
212 177 142
241 187 168
245 201 200
229 187 185
241 201 192
245 208 201
236 200 192
235 192 178
239 197 181
228 184 176
230 185 156
204 165 122
156 130 101
128 125 184
157 153 208
131 132 181
98 89 126
76 71 93
52 48 63
68 60 82
87 76 112
92 85 144
98 94 146
78 77 116
70 64 90
66 60 79
64 54 74
74 59 88
77 70 102
81 71 94
97 85 118
95 83 122

42 30 21
56 42 30
141 118 105
229 195 150
249 208 198
224 182 171
238 201 191
246 212 207
239 204 198
241 206 194
231 193 181
227 181 171
237 190 178
232 186 166
219 170 130
138 111 114
94 92 136
146 137 196
156 150 190
91 82 121
84 81 120
85 76 96
60 46 59
85 66 86
66 59 79
97 92 146
81 80 123
89 75 107
58 49 72
86 77 95
60 47 67
78 67 99
83 71 107
83 73 95
98 83 110

47 34 27
69 51 51
227 197 184
246 199 173
244 197 188
236 193 187
244 209 206
248 210 212
236 204 193
245 211 205
233 196 187
227 181 167
242 194 181
226 180 158
202 157 124
177 136 110
136 106 98
102 98 183
139 137 204
85 82 120
93 87 134
90 83 114
55 45 57
49 37 42
68 61 73
74 65 82
83 76 137
75 67 96
96 84 131
88 76 106
81 67 93
92 80 116
84 72 113
94 81 125
93 79 102

57 43 39
166 141 146
227 189 164
234 192 161
246 202 181
233 194 189
245 213 207
237 199 195
240 205 199
235 193 184
229 183 163
232 191 173
247 200 184
229 184 163
219 167 129
212 163 123
157 115 94
99 77 105
94 92 140
87 79 137
73 66 104
70 62 105
70 66 89
68 66 67
51 42 62
71 67 101
84 75 121
76 68 101
56 42 74
71 65 90
72 59 79
87 77 103
98 87 121
91 78 121
84 70 92

85 71 66
190 164 162
225 183 152
233 179 170
243 201 177
252 212 198
240 204 197
247 211 199
244 209 195
238 195 177
240 198 180
220 179 159
234 189 170
230 184 162
224 178 146
209 160 126
188 141 105
151 119 96
101 81 95
69 65 77
93 87 115
83 75 125
76 72 108
69 70 79
59 53 53
66 63 76
79 73 108
83 80 128
69 58 64
94 82 112
65 53 65
63 54 66
74 64 87
93 83 116
90 76 100

100 77 73
210 177 161
224 178 157
228 175 153
228 176 157
248 205 189
248 209 188
248 212 200
241 205 195
254 222 203
246 207 191
237 197 176
229 182 165
239 191 170
221 174 151
215 166 131
211 160 118
183 137 104
104 79 81
72 62 84
79 69 96
84 76 118
79 77 111
74 72 116
67 59 89
46 35 29
63 52 66
71 62 84
55 49 66
88 80 131
70 67 92
66 53 63
79 67 104
84 75 111
86 76 108

114 89 84
215 178 161
240 193 171
235 184 159
215 167 146
230 181 167
242 195 176
246 212 186
235 209 183
252 224 198
240 198 183
224 180 155
229 184 165
224 174 152
219 168 138
210 159 130
208 155 122
192 141 105
111 84 79
71 56 58
61 58 79
74 69 100
63 60 80
73 69 100
58 57 78
38 35 42
48 38 46
74 63 86
63 51 78
78 70 106
90 81 131
61 50 66
58 46 73
90 80 101
97 84 122

114 85 77
203 161 142
217 168 142
222 172 143
224 172 147
211 159 140
214 167 148
247 209 181
250 211 188
245 209 183
235 190 176
228 181 158
232 185 167
219 173 146
227 174 147
221 167 136
211 158 124
174 127 114
153 112 109
128 97 92
79 65 67
96 83 100
65 57 65
51 45 64
68 70 90
58 63 84
47 43 53
66 54 65
64 51 72
55 46 63
75 65 109
49 41 44
65 52 72
53 40 55
72 58 77

98 66 57
176 131 111
209 160 131
202 157 124
185 140 113
193 150 129
203 161 144
231 190 167
249 206 190
236 195 173
235 187 169
214 164 141
230 179 162
212 160 146
213 159 128
224 169 139
215 164 122
206 155 113
172 133 110
156 119 94
141 103 89
94 65 71
93 77 84
78 72 79
64 61 74
73 71 96
58 55 75
43 29 42
73 55 96
75 66 72
56 50 56
63 54 93
69 51 76
68 53 73
77 62 80

73 49 38
130 79 69
171 129 107
186 146 125
218 171 150
209 159 132
200 163 143
205 167 137
246 205 185
238 196 181
219 171 163
208 156 132
209 161 139
197 146 125
208 152 114
221 167 129
212 159 124
215 165 129
194 147 113
160 119 101
135 98 81
115 83 73
80 54 48
84 73 88
74 69 81
81 82 118
60 57 85
37 29 37
63 55 88
69 62 90
66 63 67
53 45 48
67 52 79
52 41 51
83 69 101

67 46 36
93 49 48
135 92 100
192 149 155
220 171 163
205 145 131
175 136 118
198 159 133
237 197 176
221 179 156
227 180 173
203 152 125
190 144 117
195 145 118
200 148 122
218 166 130
212 160 123
223 174 138
208 162 126
182 136 111
137 96 75
115 77 60
70 43 34
71 58 61
77 66 87
53 53 71
65 67 94
35 34 36
49 43 68
65 59 89
80 71 96
56 48 58
71 57 89
57 44 64
56 43 68

55 35 26
99 65 46
118 78 74
111 72 63
129 96 65
180 136 125
167 131 124
195 154 137
219 178 157
245 204 185
208 161 141
191 140 111
192 149 125
199 152 129
182 134 112
210 159 127
200 147 114
227 173 140
192 144 111
175 130 108
155 113 91
118 81 63
85 57 45
50 32 24
64 51 63
83 73 88
80 78 109
60 55 76
59 55 72
71 65 92
43 37 63
52 40 65
57 46 59
65 49 67
57 42 58

52 31 26
115 74 64
112 71 50
193 166 144
154 143 123
53 44 22
116 85 97
158 118 108
211 170 150
236 195 175
216 168 161
193 143 111
196 148 122
180 129 106
154 97 67
180 122 90
204 148 119
217 163 129
183 135 100
193 149 116
152 111 91
103 71 60
88 62 55
64 43 35
62 47 30
60 50 62
83 76 108
45 38 55
80 77 94
59 54 73
51 45 56
84 71 108
38 27 32
57 40 54
55 39 48

55 39 34
77 50 39
177 137 127
252 238 245
146 127 123
240 227 227
42 25 24
79 59 52
188 150 136
247 201 186
223 185 167
192 144 118
177 126 97
167 115 82
215 161 138
218 162 145
186 134 108
197 147 115
220 167 141
191 142 103
167 116 86
123 79 66
94 64 52
66 47 32
38 28 25
51 44 42
71 68 95
67 62 84
71 66 94
58 48 73
79 70 94
58 48 67
40 28 32
57 41 85
70 56 93

47 32 29
63 38 42
220 183 181
232 216 219
101 84 78
77 65 65
29 20 20
97 71 64
180 138 124
250 216 212
223 183 162
207 159 146
179 129 98
201 145 124
231 170 151
220 156 139
203 148 129
179 129 102
210 148 112
190 141 106
173 123 95
157 110 93
108 70 57
80 56 44
54 39 32
68 68 86
73 74 102
48 44 62
66 61 86
74 66 101
62 53 81
39 29 47
67 54 70
52 44 50
67 53 84

38 22 19
89 63 64
216 176 169
227 203 200
122 100 83
74 64 54
97 82 77
137 105 97
233 185 172
250 217 218
218 175 149
211 162 142
192 139 112
211 152 137
185 141 124
191 150 135
165 130 118
147 112 101
147 96 74
201 145 114
171 126 90
135 90 73
112 76 60
94 59 50
47 37 38
64 63 78
71 67 79
84 79 97
66 61 86
46 41 66
71 62 90
55 45 64
80 73 113
46 39 41
62 48 71

41 25 21
127 96 83
203 154 136
223 186 178
206 173 147
117 102 81
105 93 79
164 113 98
244 195 185
242 200 199
209 165 136
207 155 129
183 128 102
199 179 156
239 222 200
153 148 135
90 80 75
71 51 52
99 75 72
170 117 88
180 137 103
145 100 77
108 72 57
76 51 39
41 27 23
71 62 85
47 43 64
78 73 95
64 59 80
73 69 92
56 48 56
50 38 52
80 75 120
74 67 83
44 32 46

53 40 37
205 169 153
216 165 140
219 167 145
218 171 150
230 184 159
200 152 138
226 179 173
237 198 197
237 196 188
215 168 142
199 148 112
173 125 97
247 226 218
248 236 230
249 244 239
162 154 139
36 25 9
81 55 51
116 78 67
159 114 92
155 110 88
124 81 64
76 45 33
56 38 28
51 43 51
81 80 101
75 72 97
63 60 74
71 67 92
54 45 62
50 38 60
61 55 74
77 72 101
56 47 50

82 62 57
235 198 180
207 162 135
208 156 125
203 148 125
217 163 135
203 155 126
227 182 163
240 199 194
249 217 214
194 144 121
196 142 111
213 153 133
243 214 199
253 242 226
180 161 155
57 41 37
26 17 17
53 36 30
69 44 38
97 66 57
149 108 87
130 88 67
109 68 55
74 48 34
46 35 24
51 48 58
76 72 91
68 65 81
78 75 101
70 60 79
44 36 49
64 60 67
58 54 84
73 61 79

110 82 73
235 196 184
217 171 146
201 149 115
218 164 135
204 151 119
217 169 138
235 190 171
243 202 197
240 196 183
206 153 133
190 132 106
218 160 132
240 206 182
243 215 192
181 153 144
79 57 56
41 28 34
135 122 114
51 37 31
80 55 48
102 67 58
120 80 62
105 67 52
85 53 42
66 50 31
36 26 24
56 49 59
80 76 94
62 60 85
57 48 64
50 43 51
40 37 40
67 63 89
62 49 74

159 124 113
243 200 200
242 200 187
232 180 151
225 177 142
215 169 131
238 189 171
220 173 167
250 215 213
206 160 143
188 132 115
169 119 91
207 152 112
243 196 159
230 189 160
189 166 152
83 62 51
90 70 66
104 83 77
46 33 22
81 55 44
115 75 58
121 84 67
115 76 61
98 64 53
79 52 42
53 40 27
40 29 34
89 87 106
46 37 44
57 48 64
68 56 74
53 49 53
50 45 66
56 44 67

171 143 124
238 205 199
247 203 193
238 192 177
229 187 158
226 185 149
239 195 182
230 189 183
247 209 205
219 168 143
196 144 116
185 131 104
206 153 119
219 166 129
229 184 162
197 157 138
167 136 113
121 99 80
97 74 61
113 83 77
98 60 47
133 86 62
133 93 69
132 93 79
108 69 53
99 63 47
77 51 40
52 38 27
66 69 87
74 72 97
46 46 71
63 58 57
67 58 80
77 69 87
56 48 63

200 175 155
250 213 213
244 202 203
238 191 187
227 184 169
239 195 183
238 192 188
245 205 200
232 187 177
211 157 132
193 138 110
177 122 95
188 140 113
224 170 133
218 164 131
227 175 151
213 164 142
190 156 127
165 130 108
110 75 64
137 88 64
151 105 76
166 124 91
126 87 66
130 85 70
104 67 51
85 55 43
51 39 24
64 62 82
79 76 101
56 52 75
45 37 58
65 55 63
61 52 71
79 70 94

213 178 160
245 204 210
240 196 200
240 192 194
228 184 179
237 192 192
237 191 191
249 208 202
231 181 169
198 142 117
183 126 99
171 115 87
189 139 110
230 174 137
218 167 129
199 144 112
175 123 95
140 95 64
129 84 58
135 91 68
155 107 80
181 135 104
195 151 113
158 116 98
134 88 73
120 78 62
91 55 40
47 34 17
79 74 89
39 37 43
55 49 72
70 62 91
60 53 67
66 57 76
72 62 88

213 181 163
235 194 194
233 188 186
225 179 175
220 177 172
238 193 196
230 192 187
230 189 182
224 172 156
206 147 122
201 142 115
180 121 95
184 136 103
230 177 140
206 166 116
201 152 109
181 137 99
150 109 90
159 115 93
166 120 93
173 126 98
200 153 122
182 129 105
156 110 100
137 92 77
119 76 60
102 62 47
62 44 34
78 73 91
60 56 62
49 45 45
61 58 65
74 69 93
51 43 53
64 56 74

225 181 166
235 189 185
229 180 176
227 173 167
238 190 186
240 189 185
244 200 195
230 175 162
212 153 138
200 141 114
185 127 97
175 122 90
207 148 113
226 167 127
222 170 135
192 148 107
174 133 100
165 124 95
192 152 116
187 140 101
200 146 114
212 159 128
181 130 105
151 104 84
140 95 77
126 82 66
107 67 52
76 49 33
62 53 77
73 69 98
67 67 70
44 44 41
60 55 77
37 32 32
52 40 55

225 180 165
235 188 185
233 184 180
243 190 184
242 192 189
229 188 186
230 181 172
223 165 147
203 146 128
191 132 104
180 123 93
176 128 97
206 148 113
221 162 120
225 169 132
219 172 127
211 166 131
213 167 134
196 151 120
216 167 131
209 153 126
193 140 106
179 127 104
162 113 91
143 99 81
121 80 63
99 60 45
89 58 37
53 39 28
66 61 80
79 74 98
72 69 89
59 57 70
74 70 94
54 48 54

219 177 161
229 181 178
237 184 179
243 192 189
237 187 184
243 196 193
227 172 159
212 154 131
193 137 112
177 119 90
166 109 79
172 119 87
202 144 109
225 166 124
233 177 140
218 167 131
230 181 140
211 159 133
218 165 138
199 143 116
207 152 124
206 153 121
175 124 100
149 104 81
126 86 67
116 78 59
93 58 42
104 70 50
86 54 39
62 48 25
79 69 95
85 78 113
63 62 77
79 72 113
65 61 71

212 172 155
236 187 185
228 176 173
238 187 184
240 191 188
235 184 178
220 162 145
205 146 118
192 138 107
186 128 98
164 110 79
169 121 93
205 147 113
221 162 120
232 176 139
231 179 148
217 162 139
221 165 145
223 163 145
221 161 137
211 156 126
205 152 122
185 130 104
160 111 89
121 83 63
113 77 58
93 60 43
101 65 46
86 55 41
74 49 38
45 35 33
57 52 71
82 80 115
65 69 91
81 77 104

212 181 161
239 192 182
226 175 174
242 192 188
233 183 181
237 182 168
205 150 126
199 145 118
184 131 100
167 112 81
160 108 78
182 130 98
197 144 108
222 168 129
224 171 137
228 175 143
231 174 155
227 170 152
224 159 148
223 168 143
215 160 136
203 148 114
188 133 102
169 117 94
118 85 65
105 73 53
87 56 36
99 66 47
78 53 39
68 48 35
59 47 31
58 48 47
71 60 88
76 66 96
77 76 110

183 149 129
233 186 174
219 169 164
242 195 190
231 183 174
220 166 147
206 152 127
200 146 119
162 108 78
149 93 69
153 101 79
175 122 90
199 147 113
215 162 125
229 174 147
228 175 141
218 163 133
225 171 146
225 172 152
204 150 123
216 162 135
187 138 108
175 120 93
154 101 78
139 92 71
97 63 44
90 56 37
97 63 44
77 50 36
75 53 38
69 48 32
53 32 19
55 36 36
74 62 86
79 79 98

187 154 133
234 188 172
237 184 179
229 180 174
218 171 152
208 154 133
188 134 109
186 132 106
166 109 84
148 92 68
143 92 72
166 113 84
198 145 114
210 157 123
226 173 141
226 174 133
234 180 146
225 171 136
213 165 138
220 167 136
209 155 125
195 147 114
172 117 89
154 105 83
121 81 67
101 64 46
88 51 33
97 61 42
91 61 44
76 49 32
83 55 43
70 47 30
63 42 29
46 29 21
71 59 83

165 131 110
239 195 177
215 160 154
234 186 175
229 185 156
203 150 126
173 119 94
182 128 101
160 107 76
144 92 64
132 77 56
143 89 67
209 156 127
232 179 146
214 161 127
234 184 137
212 157 128
241 189 158
225 174 143
227 175 144
208 155 124
203 148 111
174 118 88
149 100 80
120 82 67
91 52 35
102 63 46
95 60 41
83 51 34
95 65 47
72 46 26
62 43 30
60 42 31
44 23 19
76 64 88

123 92 82
240 188 169
227 174 180
236 189 183
217 156 136
201 144 115
190 135 104
174 119 88
162 107 76
156 98 66
132 85 59
153 97 71
185 129 93
231 180 134
224 172 133
230 178 141
235 183 148
226 173 136
233 181 151
213 161 130
201 148 116
189 136 103
174 119 91
142 94 72
121 79 62
98 60 43
103 65 46
101 64 45
96 58 40
86 55 34
62 42 31
70 55 46
56 36 24
39 21 12
66 43 33

101 72 69
235 186 161
244 192 189
236 186 167
209 149 115
189 132 100
168 113 82
158 103 72
165 110 79
146 89 60
141 89 62
127 75 53
165 110 75
228 175 129
234 183 138
225 173 138
220 167 133
235 183 152
225 175 141
217 167 133
194 141 109
179 126 95
172 119 88
145 95 70
113 72 56
98 61 45
107 69 50
93 55 36
99 61 42
86 58 38
72 50 36
30 17 11
49 29 22
71 47 33
82 55 38

58 33 32
233 187 163
231 178 162
211 152 121
205 147 104
154 97 67
148 92 65
153 97 70
160 104 77
139 83 61
148 90 58
135 83 61
127 80 57
193 140 97
227 176 130
212 160 121
228 176 140
208 159 119
225 176 136
209 159 119
192 139 106
177 124 92
171 118 87
142 94 72
109 65 47
111 73 54
101 63 44
103 65 46
93 59 37
80 53 35
76 52 25
34 24 18
49 27 15
69 44 30
73 43 28

50 30 21
222 179 162
219 161 135
205 143 106
161 102 64
141 85 59
148 91 68
138 82 58
146 90 66
139 83 66
151 97 62
143 77 54
121 76 56
170 115 75
228 177 131
217 166 126
223 171 136
205 153 116
222 173 128
209 161 115
195 142 107
188 135 100
150 99 73
133 87 66
114 73 57
93 59 48
109 72 52
102 64 45
94 60 38
79 51 31
73 65 49
52 41 30
104 80 63
97 71 54
84 55 40

47 30 24
190 154 135
238 191 168
199 138 103
139 83 45
134 81 55
121 68 52
118 69 55
119 71 51
124 64 47
141 82 61
125 70 47
127 79 56
147 94 56
218 166 118
224 172 128
222 171 125
231 179 136
222 171 129
203 152 109
196 145 102
176 119 98
157 106 81
124 81 66
111 68 59
99 60 44
116 75 57
103 62 44
102 68 43
83 52 31
51 42 31
73 48 31
109 75 52
105 68 49
88 49 34

34 17 14
151 112 96
241 194 170
244 199 200
214 169 142
141 100 72
87 48 29
66 29 21
71 37 27
99 52 38
128 79 60
130 80 64
119 71 52
133 81 47
205 153 107
229 176 132
220 168 130
216 164 126
207 155 115
225 173 133
194 143 100
176 123 91
162 113 90
134 92 67
115 72 64
104 61 50
110 69 51
100 63 39
110 76 53
83 52 31
88 64 48
105 78 61
107 73 54
97 61 43
68 41 27

42 26 23
113 82 70
245 204 183
250 203 187
235 196 197
224 185 163
167 131 109
106 72 55
111 77 68
91 53 40
104 64 44
121 76 60
91 45 31
149 98 70
218 165 126
225 172 132
229 174 141
208 155 124
221 168 133
211 159 119
195 144 101
178 126 100
169 115 90
136 93 75
118 77 61
99 59 41
100 64 47
103 65 49
92 59 40
90 57 39
101 64 50
108 79 68
107 73 58
88 57 42
69 41 27

39 24 21
79 52 45
235 197 179
233 183 168
226 188 188
233 193 196
221 171 149
180 132 103
130 84 62
118 75 63
120 79 63
129 87 64
142 99 76
182 131 106
212 157 124
223 170 132
210 158 121
218 166 130
214 162 123
208 156 116
198 147 103
184 131 98
167 110 85
132 88 74
118 77 61
101 61 43
109 68 49
99 61 37
85 52 37
83 48 33
101 62 47
103 68 47
101 63 51
83 57 43
61 41 27

46 33 28
59 39 35
200 166 149
243 195 178
223 186 179
239 187 195
229 176 157
218 161 130
169 114 80
141 94 69
138 92 68
155 107 80
189 142 113
196 144 112
199 146 110
219 166 131
208 156 119
222 170 129
201 150 109
210 159 121
195 143 102
182 129 96
158 105 82
128 86 69
106 64 54
100 61 46
109 68 53
104 63 42
87 59 45
86 54 38
102 62 46
92 60 44
109 71 56
85 56 40
62 40 28

44 31 24
44 29 25
162 130 115
236 184 179
245 197 195
236 189 194
239 192 178
221 167 141
187 136 107
164 117 86
180 132 102
179 127 98
189 138 107
206 156 124
211 159 122
217 165 128
206 153 123
217 166 124
213 162 123
202 152 115
188 137 96
183 130 96
157 108 85
131 86 68
112 72 60
104 61 45
115 72 57
107 66 44
96 57 40
75 46 30
100 64 47
104 62 42
88 57 42
75 46 33
50 25 17

43 30 23
47 34 31
228 185 169
226 178 163
224 170 165
241 191 184
238 195 192
223 171 151
198 151 129
155 109 84
187 140 111
187 135 103
190 137 104
201 150 118
207 155 118
214 162 125
219 167 133
206 154 117
207 155 118
197 147 110
191 140 100
183 131 92
158 103 76
128 87 69
116 78 58
119 78 58
111 70 50
106 65 43
77 50 34
77 49 35
91 58 46
118 76 65
102 69 47
42 22 15
36 16 11

30 18 11
56 46 42
216 174 160
242 198 174
232 159 137
219 139 118
244 186 176
225 164 141
176 123 99
163 116 94
188 139 114
180 128 98
200 148 118
184 133 102
211 159 122
206 154 117
216 164 127
207 155 118
199 147 112
186 136 99
195 144 105
183 130 92
165 112 78
139 91 68
121 83 63
112 73 57
109 68 46
92 59 40
77 50 34
65 37 27
52 25 17
69 41 32
45 27 20
37 22 21
26 11 8

34 21 16
41 28 21
188 150 141
237 181 152
208 131 104
208 120 96
217 135 113
210 139 112
182 126 103
175 119 104
187 131 111
181 124 98
185 132 103
190 138 110
200 148 118
200 150 113
207 157 121
214 161 129
202 151 121
196 146 111
196 144 110
186 132 99
160 109 81
148 97 73
124 82 63
125 83 62
109 69 48
87 53 34
61 33 23
70 43 35
64 37 30
48 30 22
34 18 15
38 23 20
31 15 15

32 19 17
41 27 19
241 193 173
230 179 158
188 123 106
156 79 61
174 92 72
169 99 78
153 97 79
176 114 101
159 96 80
190 126 105
171 110 83
183 133 107
193 143 116
189 140 107
204 151 116
202 147 113
191 141 111
163 113 80
192 139 108
173 119 89
145 97 73
138 91 75
124 81 65
121 77 56
107 68 49
70 49 36
54 34 21
69 48 36
61 40 27
60 44 37
42 27 21
35 20 15
31 16 13

30 16 15
38 26 22
192 152 143
234 187 175
199 151 143
197 145 135
162 78 62
157 72 55
162 81 71
150 77 64
165 96 79
170 100 82
173 104 83
174 119 97
192 139 118
180 127 101
200 147 112
207 152 115
192 142 106
178 128 95
183 131 99
173 120 89
156 106 79
145 97 70
123 78 59
116 74 49
104 66 48
70 53 36
58 40 24
58 41 24
67 44 30
58 38 30
43 25 17
37 22 17
32 16 17

34 20 19
56 37 35
156 123 125
229 181 169
225 184 176
235 183 175
162 69 47
140 51 38
185 104 86
161 85 68
147 71 55
135 60 45
139 64 49
149 81 66
156 91 74
174 112 95
193 138 99
206 152 112
180 131 97
178 128 95
185 131 101
160 106 77
148 101 75
140 92 66
126 82 61
113 73 47
101 68 47
74 52 34
69 46 29
81 57 40
76 50 37
61 39 28
34 18 11
39 24 18
33 18 15

32 18 16
33 19 14
96 77 72
219 182 167
226 186 168
228 159 141
190 78 59
155 64 47
161 83 72
202 125 96
213 156 127
199 142 120
139 89 68
121 46 40
140 61 56
183 113 94
184 130 105
200 149 113
190 137 103
167 116 87
166 116 85
164 116 84
148 101 70
136 93 69
135 88 58
116 77 45
105 73 40
94 60 43
82 53 41
88 61 40
79 53 36
57 35 26
59 39 36
42 25 18
34 19 14

28 15 12
42 28 23
34 17 10
152 122 112
229 191 172
229 160 140
209 103 86
171 76 59
160 63 40
159 59 45
161 70 58
192 120 111
160 96 87
149 84 74
131 66 52
165 85 53
178 122 92
189 140 107
184 133 104
175 124 95
169 118 89
159 112 82
151 104 74
137 95 71
129 87 67
132 82 55
109 75 51
95 60 40
76 54 40
97 72 60
86 62 49
68 46 36
57 38 27
46 29 21
35 20 15

29 16 13
32 20 17
51 34 28
99 74 70
216 179 163
227 166 144
217 125 112
230 154 159
198 119 106
183 82 70
177 71 54
180 76 55
158 62 44
153 69 57
150 82 60
169 109 85
194 140 113
203 150 115
193 142 113
177 126 97
161 110 81
169 118 91
149 102 74
132 89 68
128 81 51
142 95 65
89 54 35
106 72 47
108 88 78
132 112 110
111 91 85
62 42 32
62 43 27
45 26 17
33 18 13

26 13 10
37 23 18
52 35 30
50 32 34
198 166 150
232 176 154
205 130 120
218 137 139
235 162 161
238 175 170
212 128 111
177 70 48
192 89 74
168 63 52
188 131 117
201 153 139
192 148 120
187 141 110
178 129 97
164 113 84
159 108 79
151 101 75
155 107 83
127 84 66
142 95 65
113 78 60
99 64 43
80 50 38
205 198 195
178 167 161
110 93 88
69 49 42
100 79 69
66 46 38
44 27 19

29 15 12
35 21 19
35 19 17
39 21 18
140 109 102
239 193 171
200 141 125
200 110 101
214 125 117
224 164 169
203 126 117
182 84 68
173 68 63
166 90 73
188 117 99
192 132 111
202 148 119
204 151 120
189 135 106
158 109 81
174 123 94
155 102 76
148 101 74
141 95 68
146 98 76
103 65 37
95 63 46
167 151 150
254 252 248
187 183 166
112 102 87
104 86 75
75 53 45
58 38 33
43 25 21

29 15 12
35 21 20
30 16 15
37 19 13
79 49 49
232 190 168
221 169 150
211 141 128
207 132 122
193 114 109
166 80 71
169 69 53
169 62 57
163 94 78
170 106 86
179 121 96
203 151 121
197 143 114
182 128 101
174 129 100
168 118 91
152 100 73
158 111 83
145 98 72
136 93 61
79 53 38
103 75 56
200 185 187
246 238 234
243 238 229
163 151 142
100 82 71
76 54 41
68 48 43
37 18 14

28 14 11
28 14 13
35 21 20
37 21 17
50 23 25
186 147 126
242 193 175
233 186 168
219 164 148
195 133 122
167 97 91
165 71 63
169 75 69
161 76 67
155 99 76
172 120 93
185 137 106
191 142 109
184 135 104
169 122 90
163 115 90
149 97 74
152 105 77
147 95 71
138 90 62
90 61 49
96 65 54
165 146 147
239 228 224
226 213 215
105 86 87
89 69 60
69 49 34
59 39 34
47 28 24

26 12 9
27 13 12
31 17 15
34 22 20
40 15 18
127 90 73
248 199 185
244 206 184
233 193 172
211 168 151
187 138 122
178 118 106
157 90 80
142 79 66
154 93 78
166 119 90
176 129 98
165 119 81
188 141 111
172 123 100
157 113 89
154 105 82
164 117 89
155 106 72
130 87 58
82 52 41
109 70 55
111 78 73
88 60 50
119 98 89
94 72 63
63 44 32
67 48 34
43 24 19
49 30 26

24 12 9
27 14 13
30 18 16
31 18 9
35 13 16
81 49 40
234 187 166
243 205 185
226 189 170
237 200 181
225 188 167
211 167 146
195 148 132
171 125 114
161 115 102
153 106 89
189 143 107
176 131 94
192 145 115
170 124 94
162 118 87
153 107 85
157 110 74
132 86 57
95 67 42
83 52 24
102 71 47
109 72 45
93 60 47
83 65 49
91 75 61
103 88 74
78 64 51
60 45 33
51 33 29

28 17 14
24 13 11
26 15 12
30 15 6
35 18 20
57 28 25
226 187 156
252 218 197
240 204 187
239 198 178
232 188 166
221 176 153
208 163 138
195 150 125
166 121 105
164 114 89
169 120 87
188 141 107
177 129 99
160 114 84
167 121 95
168 121 84
157 113 78
115 78 56
77 54 40
103 70 45
104 69 49
108 76 61
98 70 57
102 91 80
174 164 154
141 132 122
126 117 106
112 94 86
37 19 12

26 15 11
32 21 19
27 17 15
24 10 12
30 17 23
38 18 13
168 136 110
246 209 181
243 203 178
235 191 167
242 194 171
223 174 153
229 179 154
214 166 134
199 152 126
173 126 97
157 110 77
163 116 89
172 127 98
162 117 92
155 106 71
167 122 87
153 111 77
95 63 43
91 65 51
108 73 55
111 76 56
100 65 45
109 81 67
145 133 126
179 168 164
129 118 114
120 93 90
55 33 26
37 18 13

25 14 10
27 16 14
22 12 10
26 13 12
24 14 15
32 18 17
75 52 43
225 188 157
232 188 156
239 193 166
233 182 155
229 179 151
227 176 149
211 160 133
208 152 129
193 138 116
167 122 93
170 125 100
168 126 96
156 113 82
167 121 83
157 111 78
146 107 76
102 72 46
87 62 40
108 74 54
114 79 59
106 70 51
91 59 44
78 55 48
117 96 90
120 98 92
62 39 32
46 31 16
63 54 41

23 11 8
19 8 5
24 13 10
30 17 16
22 12 10
37 25 23
32 18 14
172 135 107
232 189 155
240 196 165
231 183 145
228 178 144
220 171 143
209 160 137
203 147 124
182 132 109
166 121 98
154 112 83
165 124 94
151 108 80
174 131 92
160 115 83
141 102 71
113 76 50
105 70 52
109 75 55
121 81 62
94 59 41
82 48 31
101 68 52
98 66 51
81 54 39
70 46 32
96 86 76
151 144 142

27 13 10
23 12 8
23 12 8
29 17 17
27 16 14
30 20 13
30 21 12
58 31 17
201 167 147
205 160 131
226 177 140
228 178 142
224 174 142
209 159 130
186 137 110
192 144 119
170 125 102
150 104 80
159 118 86
173 131 102
158 117 81
146 105 79
137 101 74
125 87 67
99 64 44
112 77 54
114 72 55
101 63 45
93 59 39
91 61 40
88 64 46
117 97 85
125 119 114
147 143 143
161 154 166

24 10 7
20 9 5
24 13 9
27 15 15
26 15 12
28 17 10
26 16 7
37 23 20
171 139 130
217 175 162
204 158 133
220 173 145
226 175 144
213 161 129
197 148 121
183 137 114
167 125 104
148 103 82
163 118 86
148 103 71
148 107 83
129 90 61
130 92 74
119 80 62
116 82 57
106 71 51
118 83 63
102 61 44
86 60 43
113 99 84
135 123 114
174 165 163
162 158 161
169 166 166
174 172 168

25 11 8
26 15 11
23 12 7
25 13 13
21 10 8
27 16 9
22 12 2
26 12 9
36 16 17
92 68 70
154 121 116
209 173 160
213 172 150
201 155 126
188 141 117
180 137 117
153 111 93
141 94 63
150 103 81
145 99 75
135 91 73
107 70 47
118 81 62
131 94 72
121 88 58
110 76 56
100 73 50
139 124 112
153 140 135
183 171 171
202 195 193
230 222 220
247 242 238
243 233 228
248 239 233

23 12 7
19 8 4
23 12 8
23 12 10
37 26 22
24 13 8
26 15 9
24 12 7
25 12 10
28 15 17
35 16 16
82 58 56
124 90 85
188 150 143
188 145 131
166 125 112
143 90 72
116 66 57
96 56 46
114 71 48
124 87 62
104 67 42
142 100 72
122 88 47
131 98 72
148 134 112
203 190 173
213 206 198
252 244 243
239 228 231
247 239 240
248 239 237
248 238 233
239 221 227
242 226 236

24 13 9
25 14 10
24 13 9
25 14 10
24 13 9
25 14 10
22 11 7
24 13 9
25 14 10
23 12 9
18 9 4
29 16 13
39 22 22
65 40 41
97 64 58
120 86 79
104 65 54
59 33 22
82 50 39
133 97 79
190 157 128
151 116 80
146 104 68
153 138 110
186 177 153
232 225 220
245 237 239
252 246 242
243 230 227
251 235 233
233 228 226
245 235 235
243 231 228
230 218 218
229 215 228

